<?xml version="1.0" standalone="no"?>
<!DOCTYPE svg PUBLIC "-//W3C//DTD SVG 20010904//EN"
 "http://www.w3.org/TR/2001/REC-SVG-20010904/DTD/svg10.dtd">
<svg version="1.0" xmlns="http://www.w3.org/2000/svg"
 width="268.000000pt" height="268.000000pt" viewBox="0 0 268.000000 268.000000"
 preserveAspectRatio="xMidYMid meet">
<metadata>
Created by potrace 1.14, written by Peter Selinger 2001-2017
</metadata>
<g transform="translate(0.000000,268.000000) scale(0.100000,-0.100000)"
fill="#000000" stroke="none">
<path d="M1293 2667 c-3 -6 -1 -7 5 -3 6 3 13 2 17 -4 3 -5 -3 -10 -15 -10
-12 0 -19 -4 -15 -9 3 -5 1 -12 -4 -15 -5 -4 -13 -1 -17 5 -5 8 -3 9 6 4 9 -6
11 -4 5 5 -6 10 -12 7 -25 -10 -11 -15 -23 -21 -33 -17 -20 7 -32 -9 -16 -19
8 -5 9 -3 4 6 -6 9 -4 11 4 5 9 -5 10 -10 2 -18 -7 -7 -15 -6 -26 3 -13 11
-14 10 -9 -6 4 -10 4 -16 -1 -12 -4 4 -14 0 -22 -10 -13 -15 -13 -15 -8 8 5
22 5 23 -6 6 -14 -22 -47 -56 -55 -56 -3 0 -2 6 2 13 6 8 3 8 -9 -1 -9 -8 -21
-11 -26 -8 -5 4 -13 1 -17 -5 -4 -8 -3 -9 4 -5 7 4 12 1 12 -8 0 -8 -5 -18
-12 -22 -6 -4 -8 -3 -5 3 4 6 -1 13 -11 15 -11 3 -19 0 -19 -8 0 -7 5 -10 11
-7 6 4 5 -1 -3 -10 -12 -15 -31 -15 -31 -1 0 3 5 2 12 -2 7 -4 8 -3 4 5 -4 6
-12 9 -17 5 -5 -3 -6 -10 -3 -16 5 -7 1 -9 -9 -5 -10 3 -17 2 -17 -4 0 -6 -5
-7 -11 -3 -7 4 -6 -2 2 -17 11 -21 10 -22 -3 -12 -8 7 -18 10 -22 6 -4 -4 -11
-1 -17 7 -7 11 -8 8 -5 -11 3 -17 0 -26 -10 -26 -7 0 -10 5 -7 10 4 6 1 7 -6
3 -7 -5 -10 -14 -8 -20 4 -9 -3 -11 -21 -8 -25 5 -26 4 -12 -13 14 -17 14 -17
-7 -7 -16 9 -24 9 -29 0 -4 -7 -3 -8 4 -4 7 4 12 5 12 3 0 -3 -12 -13 -27 -22
-16 -10 -22 -12 -15 -4 18 19 15 33 -4 14 -9 -8 -14 -21 -11 -29 3 -7 -1 -13
-9 -13 -7 0 -11 4 -8 8 2 4 -4 7 -15 6 -16 -1 -18 -4 -8 -16 9 -12 9 -13 0 -7
-7 4 -13 3 -13 -2 0 -5 -11 -8 -24 -7 -16 2 -23 -1 -20 -9 3 -7 -2 -19 -11
-26 -9 -7 -15 -8 -15 -2 0 6 6 13 13 16 6 3 2 3 -10 0 -15 -3 -23 -1 -23 7 0
7 -3 9 -6 6 -4 -4 -1 -13 6 -22 10 -12 10 -15 -4 -15 -9 0 -16 -5 -16 -11 0
-5 -8 -9 -17 -8 -22 4 -63 -21 -63 -37 0 -7 -7 -15 -16 -18 -14 -5 -15 -4 -5
8 9 11 9 16 0 22 -7 4 -9 3 -5 -4 3 -6 1 -14 -5 -17 -5 -4 -8 -14 -4 -23 5
-14 3 -14 -13 1 -10 9 -23 17 -28 17 -5 0 -2 -5 6 -10 13 -8 13 -11 1 -22 -9
-9 -12 -9 -7 -1 12 21 -38 5 -59 -19 -25 -30 -36 -33 -46 -16 -6 9 -9 9 -9 1
0 -7 7 -16 15 -20 12 -7 11 -11 -6 -21 -12 -8 -18 -9 -15 -4 3 5 -1 16 -10 23
-8 7 -14 8 -13 3 4 -23 -2 -45 -11 -39 -6 4 -7 11 -4 17 4 6 2 8 -4 5 -5 -4
-8 -16 -5 -27 3 -12 0 -20 -6 -20 -7 0 -9 5 -6 10 3 6 2 10 -4 10 -5 0 -12 -6
-14 -12 -4 -10 -8 -9 -16 2 -8 12 -10 11 -9 -5 0 -11 -3 -29 -8 -40 -7 -19 -6
-19 12 -5 18 14 18 14 5 -2 -7 -10 -11 -25 -7 -33 3 -8 1 -15 -4 -15 -6 0 -10
-5 -10 -11 0 -5 4 -8 9 -4 6 3 6 -6 1 -24 -6 -21 -4 -33 9 -46 9 -10 11 -15 4
-11 -7 4 -17 -3 -24 -16 -11 -20 -10 -21 2 -11 13 11 15 6 12 -35 -2 -26 -5
-52 -8 -59 -2 -6 1 -14 8 -17 9 -3 8 -5 -1 -5 -9 -1 -10 -6 -3 -20 7 -13 6
-24 -4 -37 -9 -13 -10 -23 -3 -31 14 -17 17 -63 4 -63 -6 0 -5 -4 2 -9 11 -6
10 -10 -3 -15 -15 -5 -15 -9 -4 -23 15 -17 13 -50 -2 -69 -5 -6 -4 -15 3 -22
14 -14 12 -80 -3 -98 -7 -8 -6 -15 2 -20 8 -4 9 -3 5 4 -5 8 -2 10 8 6 13 -5
12 -9 -6 -23 -16 -14 -18 -20 -8 -26 8 -5 11 -4 7 2 -3 5 0 10 8 10 13 0 13
-3 -1 -18 -12 -13 -12 -18 -2 -22 10 -4 10 -6 0 -6 -9 -1 -10 -6 -3 -20 7 -13
6 -24 -4 -37 -10 -14 -10 -22 -2 -32 12 -16 11 -80 -3 -97 -5 -6 -3 -17 4 -28
9 -11 11 -30 6 -56 -5 -30 -3 -44 9 -57 9 -9 11 -14 4 -10 -7 4 -17 -3 -24
-16 -10 -20 -10 -21 2 -11 11 9 14 7 14 -13 0 -13 -3 -24 -7 -24 -5 0 -8 -5
-8 -11 0 -5 3 -8 7 -6 11 7 8 -51 -2 -61 -5 -4 -5 -1 0 7 5 9 4 12 -3 7 -9 -5
-8 -12 0 -26 9 -14 14 -16 20 -7 4 7 8 7 8 1 0 -5 -5 -15 -12 -22 -9 -9 -9
-12 1 -12 7 0 9 -5 5 -12 -5 -9 -2 -9 9 1 14 11 17 11 18 0 1 -8 1 -18 0 -22
-1 -5 8 -6 19 -2 11 3 20 2 20 -3 0 -6 -6 -12 -12 -15 -7 -2 2 -4 20 -5 20 0
40 -8 49 -19 8 -10 11 -11 7 -3 -7 12 -5 13 8 3 8 -7 18 -10 21 -6 4 3 7 1 7
-5 0 -7 6 -12 14 -12 8 0 22 -10 30 -22 9 -12 16 -17 16 -10 0 6 5 12 12 12 6
0 8 -3 5 -6 -11 -12 13 -43 28 -38 14 6 20 -6 16 -29 -1 -5 3 -6 9 -2 6 3 8
11 5 16 -4 5 5 4 19 -3 14 -6 26 -15 26 -20 0 -4 18 -15 40 -24 22 -9 40 -22
40 -30 0 -8 6 -11 17 -7 12 5 14 3 8 -8 -7 -11 -5 -11 10 1 17 14 18 13 13 -2
-9 -22 1 -29 25 -17 13 7 17 7 13 1 -3 -6 3 -13 14 -17 11 -3 20 -14 20 -23 0
-15 2 -15 10 -2 5 8 10 10 10 4 0 -7 7 -15 16 -18 15 -6 15 -4 3 11 -12 17
-12 17 6 1 16 -15 16 -19 5 -35 -12 -15 -12 -16 0 -5 8 6 18 12 23 12 4 0 5
-6 1 -12 -6 -10 -4 -10 8 0 13 10 19 10 32 -3 9 -9 13 -21 10 -27 -4 -7 -2 -8
4 -4 7 4 12 2 12 -4 0 -6 5 -8 10 -5 8 5 7 12 -1 23 -7 10 -2 7 12 -6 20 -19
22 -24 9 -32 -8 -5 -10 -10 -5 -10 6 0 16 5 23 12 9 9 12 9 12 -1 0 -7 4 -10
9 -6 6 3 14 -2 19 -10 4 -9 18 -17 30 -18 16 -1 18 -4 10 -14 -8 -11 -7 -12 7
-7 12 5 16 4 12 -3 -4 -6 0 -13 8 -17 8 -3 17 0 21 6 4 6 3 8 -3 5 -5 -3 -10
1 -10 9 0 10 9 6 29 -13 28 -27 36 -39 18 -28 -5 3 -10 1 -10 -4 0 -15 13 -14
29 2 11 9 13 9 7 0 -4 -7 -3 -13 3 -13 5 0 12 6 15 13 3 6 4 1 3 -13 -1 -16 3
-25 13 -25 8 -1 14 -6 12 -13 -1 -7 3 -12 9 -12 6 0 9 7 5 15 -3 8 -1 15 3 15
5 0 12 -7 15 -16 3 -8 11 -12 17 -8 8 5 9 3 4 -6 -6 -10 -4 -12 9 -7 13 5 17
3 13 -7 -4 -11 -1 -13 11 -9 14 6 15 4 5 -8 -10 -13 -10 -16 2 -16 8 0 12 4 9
9 -3 4 -1 8 5 8 5 0 13 -10 17 -22 l6 -21 13 22 c10 20 13 21 18 7 5 -11 3
-15 -5 -10 -7 4 -8 3 -4 -4 10 -17 23 -15 30 4 4 10 2 13 -7 8 -9 -5 -9 -4 0
6 13 14 37 4 27 -12 -4 -7 -2 -8 4 -4 6 4 9 13 6 20 -7 18 12 30 22 15 5 -8 3
-9 -6 -4 -9 5 -11 4 -6 -4 4 -6 12 -9 17 -5 5 3 7 10 4 15 -4 5 -1 9 4 9 6 0
11 -5 11 -11 0 -5 5 -7 11 -3 8 5 6 10 -5 16 -9 5 -16 14 -16 21 0 8 3 8 8 2
12 -17 32 -16 32 2 0 15 2 15 13 2 6 -8 11 -13 10 -10 -1 2 8 12 20 21 17 14
25 16 37 7 13 -11 13 -10 1 6 -12 15 -12 20 -1 30 9 9 11 9 6 0 -3 -6 -2 -14
4 -18 5 -3 10 1 10 9 0 9 7 16 15 16 8 0 15 -6 15 -12 0 -9 3 -9 9 1 5 8 7 21
4 29 -5 12 -2 12 15 3 19 -10 21 -9 15 6 -6 15 -4 16 9 6 18 -16 32 -5 17 14
-9 9 -8 13 0 14 6 1 17 2 24 3 6 1 15 -3 19 -9 5 -6 8 -2 8 8 0 11 4 15 12 11
6 -4 9 -3 6 2 -3 5 0 15 8 22 8 7 14 9 14 4 0 -5 7 -9 15 -9 11 0 12 4 3 14
-6 7 -8 16 -4 20 3 3 6 1 6 -5 0 -7 5 -12 11 -12 5 0 8 4 5 9 -3 5 1 14 9 21
8 7 15 9 15 5 0 -4 12 0 26 10 15 9 23 12 20 6 -4 -6 -2 -11 3 -11 6 0 11 7
11 16 0 8 4 13 8 10 5 -3 20 1 35 9 14 7 29 10 33 7 4 -4 4 -1 0 6 -6 9 -12 9
-29 1 -20 -11 -19 -9 3 12 22 21 27 22 37 9 10 -13 12 -13 18 2 4 10 13 14 22
11 12 -5 14 -3 8 7 -6 10 -3 12 13 8 12 -3 21 -3 20 1 -3 24 4 33 23 28 17 -5
18 -3 7 10 -12 15 -11 15 10 4 13 -7 26 -10 30 -7 3 3 0 6 -6 6 -7 0 -12 5
-12 10 0 6 13 8 33 5 30 -6 31 -5 12 10 -19 14 -19 15 -1 8 13 -4 17 -3 12 5
-4 7 -2 12 4 12 6 0 8 5 4 12 -4 7 -3 8 5 4 6 -4 9 -13 5 -19 -3 -7 0 -5 8 4
7 9 18 14 25 12 6 -2 15 1 19 8 5 8 3 10 -7 4 -11 -6 -12 -5 -2 5 10 11 15 11
29 -1 16 -13 16 -12 4 11 -13 24 -12 24 5 10 17 -14 18 -13 12 2 -4 13 -2 15
10 11 10 -4 14 -2 10 4 -5 7 0 9 13 6 12 -3 20 0 20 6 0 7 -5 9 -12 5 -6 -4
-8 -3 -5 3 3 5 19 8 36 7 17 -1 35 4 42 12 6 8 15 12 19 9 5 -3 6 5 3 17 -5
23 -5 23 11 3 10 -11 15 -15 12 -8 -4 6 3 14 14 18 11 4 19 14 18 22 -2 9 4
18 12 20 13 4 13 3 0 -7 -12 -9 -12 -11 -1 -8 8 2 15 14 16 26 1 11 -1 19 -5
17 -4 -2 -7 2 -7 9 0 9 7 12 16 8 13 -4 12 -1 -3 16 -19 22 -19 22 0 23 16 0
16 1 -3 9 -13 5 -23 12 -23 15 0 4 5 3 10 0 21 -13 31 7 15 31 -14 22 -14 24
2 25 16 0 16 1 -1 8 -18 7 -18 8 -2 14 17 7 17 9 2 32 -15 23 -15 25 1 26 16
0 16 1 -1 8 -18 7 -18 8 -2 14 17 7 17 9 2 32 -15 23 -15 25 1 26 16 0 16 1
-1 8 -18 7 -18 8 -2 14 17 7 17 9 2 32 -15 23 -15 25 1 26 16 0 16 1 -1 8 -18
7 -18 8 -2 14 17 7 17 9 2 32 -15 23 -15 25 1 26 16 0 16 1 -1 8 -18 7 -18 8
-2 14 17 7 17 9 2 32 -15 23 -15 25 1 26 16 0 16 1 -1 8 -18 7 -18 8 -2 14 17
7 17 9 2 32 -15 23 -15 25 1 25 15 0 15 2 -3 16 -10 8 -14 13 -8 10 7 -3 14 1
17 8 7 17 -16 39 -28 28 -5 -4 -5 -1 -1 6 4 6 15 12 24 12 13 0 14 2 4 8 -17
11 -26 55 -9 45 7 -4 6 0 -2 10 -12 15 -11 17 5 17 15 0 16 2 5 9 -8 5 -12 18
-8 30 3 12 0 24 -6 28 -7 4 -3 9 9 14 18 7 18 8 -1 9 -19 1 -19 1 -2 11 17 10
17 12 2 35 -14 22 -14 24 2 25 16 0 16 1 -1 8 -18 7 -18 8 -2 14 17 7 17 9 2
32 -15 23 -15 25 1 26 16 0 16 1 -1 8 -18 7 -18 8 -2 14 17 7 17 9 2 32 -15
23 -15 25 1 26 16 0 16 1 -1 8 -18 7 -18 8 -2 14 17 7 17 9 2 32 -15 23 -15
25 0 25 14 0 14 2 -3 18 -10 9 -14 13 -7 9 19 -12 23 16 6 36 -14 15 -13 17 2
17 9 0 15 4 11 10 -3 5 -13 6 -23 3 -15 -5 -15 -4 1 8 17 14 17 15 -5 16 -13
1 -32 14 -43 28 -20 24 -53 36 -39 13 4 -7 3 -8 -5 -4 -6 4 -8 12 -5 18 5 7 0
9 -15 5 -16 -4 -20 -2 -13 6 7 8 5 17 -6 27 -14 13 -15 12 -9 -3 3 -9 2 -17
-3 -17 -6 0 -10 7 -10 16 0 13 -3 14 -15 4 -12 -10 -16 -8 -24 13 -6 14 -20
31 -33 37 -22 11 -22 10 2 -10 l25 -21 -27 12 c-16 7 -28 18 -28 26 0 7 -5 13
-11 13 -6 0 -7 6 -2 13 4 6 -5 4 -21 -6 -27 -18 -27 -18 -16 2 6 12 7 21 3 20
-4 -1 -11 0 -15 1 -13 4 -27 7 -39 9 -5 0 -8 5 -5 10 6 9 -22 26 -36 23 -5 -1
-13 7 -20 17 -11 18 -13 18 -26 3 -7 -9 -11 -12 -8 -6 8 17 -32 49 -63 50 -39
3 -41 3 -41 15 0 8 4 8 14 0 10 -8 16 -9 21 -1 4 6 1 9 -7 8 -7 -2 -12 4 -10
12 3 10 -3 9 -19 -5 -12 -11 -19 -14 -14 -6 6 11 4 13 -9 8 -13 -5 -17 -3 -13
7 9 23 -18 40 -36 22 -13 -14 -16 -14 -21 0 -3 8 -11 12 -17 8 -8 -4 -9 -3 -5
5 6 9 11 9 22 0 8 -7 14 -7 14 -1 0 12 -29 26 -47 23 -8 -1 -10 5 -6 16 5 15
3 15 -11 -2 -10 -11 -15 -15 -12 -9 3 7 -4 14 -15 17 -12 3 -18 10 -15 15 3 5
-2 16 -11 23 -9 8 -14 9 -10 3 4 -7 1 -17 -7 -23 -11 -9 -13 -6 -10 16 2 16 1
22 -2 16 -3 -7 -13 -13 -22 -13 -15 0 -15 2 -2 11 12 9 10 10 -8 6 -19 -5 -22
-2 -17 16 4 12 3 17 -2 11 -4 -6 -16 -11 -25 -11 -13 0 -15 4 -7 13 7 8 6 14
-2 20 -8 4 -9 3 -5 -4 4 -7 2 -12 -3 -12 -6 0 -11 5 -11 10 0 6 -5 10 -11 10
-5 0 -7 -4 -4 -10 3 -5 1 -10 -5 -10 -7 0 -9 7 -6 16 4 12 2 15 -9 10 -8 -3
-15 -1 -15 3 0 5 6 11 13 14 6 3 -4 4 -23 3 -30 -1 -34 2 -32 18 3 17 1 18
-11 7 -11 -9 -17 -9 -22 0 -4 6 -1 15 6 21 12 7 11 8 -1 6 -8 -1 -24 3 -35 9
-11 5 -30 9 -43 8 -13 -1 -26 3 -29 8 -3 6 -1 7 5 3 7 -4 12 -2 12 4 0 6 6 8
13 4 6 -4 8 -3 4 2 -11 12 -106 13 -114 1z m157 -47 c8 -5 11 -10 5 -10 -5 0
-17 5 -25 10 -8 5 -10 10 -5 10 6 0 17 -5 25 -10z m-84 -229 c5 1 14 -8 20
-20 10 -19 12 -20 18 -5 6 16 8 15 26 -1 11 -10 20 -28 21 -39 0 -12 3 -15 6
-8 2 6 9 12 14 12 6 0 7 -6 3 -12 -5 -8 0 -7 11 2 11 9 16 10 11 3 -5 -9 0
-13 16 -13 18 0 20 -2 8 -9 -8 -6 -18 -7 -24 -4 -5 3 -7 2 -3 -3 3 -5 21 -9
41 -8 20 1 40 -4 47 -12 6 -8 16 -11 23 -7 6 3 8 3 4 -2 -8 -9 15 -35 32 -35
6 0 8 -5 4 -12 -6 -10 -4 -10 8 0 13 10 17 10 22 -3 4 -11 2 -14 -7 -9 -8 5
-8 2 2 -9 7 -9 17 -15 21 -12 5 3 11 0 13 -5 3 -6 4 -5 3 2 -2 7 -9 12 -15 10
-7 -1 -9 2 -6 8 5 8 13 6 24 -4 10 -9 21 -13 26 -9 4 5 6 0 2 -9 -6 -18 16
-32 48 -29 17 2 17 0 5 -8 -12 -9 -11 -11 8 -11 12 0 22 -4 22 -9 0 -5 7 -12
16 -15 15 -6 15 -4 3 11 -13 17 -12 17 6 2 11 -9 27 -14 35 -11 9 3 8 -2 -5
-14 -11 -10 -16 -16 -11 -11 15 11 26 8 22 -5 -1 -7 -1 -10 1 -7 2 4 13 5 23
2 19 -5 25 -16 21 -36 -1 -5 3 -6 9 -2 6 3 8 12 4 18 -3 7 1 4 9 -5 16 -21 32
-24 21 -5 -5 8 -2 8 9 -2 19 -15 23 -26 6 -16 -6 4 -5 -2 2 -14 10 -14 16 -17
21 -8 6 9 11 7 19 -6 8 -13 14 -15 29 -7 21 11 38 -4 19 -16 -8 -5 -9 -3 -4 6
5 9 4 11 -4 6 -19 -12 -3 -24 29 -21 16 1 27 -1 24 -6 -3 -5 2 -9 12 -9 11 0
15 -6 12 -18 -4 -12 1 -18 13 -19 11 -1 19 3 19 8 0 6 -5 7 -12 3 -7 -5 -8 -3
-3 5 8 14 33 -8 54 -47 12 -23 6 -30 -26 -27 -16 1 -20 -3 -18 -17 3 -12 0
-16 -8 -11 -21 13 -45 10 -40 -4 4 -11 8 -11 22 -1 14 11 14 11 3 -4 -7 -9
-24 -15 -38 -13 -13 1 -27 -2 -30 -7 -3 -4 -10 -5 -16 -2 -7 4 -8 2 -4 -5 6
-9 12 -9 24 1 15 11 6 -3 -27 -42 -2 -3 -1 3 2 13 9 24 -2 21 -24 -7 -14 -17
-27 -23 -50 -22 -16 1 -33 -2 -36 -7 -3 -6 -1 -7 4 -4 6 4 13 0 16 -8 5 -11 1
-12 -20 -4 -24 9 -25 8 -12 -8 12 -15 12 -16 -5 -10 -11 5 -28 1 -42 -8 -17
-11 -24 -12 -24 -4 0 7 -3 9 -7 5 -5 -4 1 -14 12 -23 20 -15 20 -15 -2 -8 -19
5 -22 3 -17 -12 3 -10 2 -14 -3 -8 -9 12 -23 13 -40 2 -17 -11 -27 11 -13 28
10 12 7 13 -20 5 -27 -8 -31 -7 -26 6 4 11 0 14 -16 12 -12 -2 -23 3 -25 12
-4 13 -3 13 6 0 6 -8 11 -10 11 -4 0 6 -8 18 -17 25 -11 10 -14 10 -9 2 4 -7
3 -13 -2 -13 -5 0 -12 9 -15 21 -3 12 -10 18 -15 15 -5 -3 -15 1 -22 9 -10 12
-16 13 -28 3 -13 -11 -15 -10 -10 7 3 14 0 21 -11 22 -56 3 -71 8 -66 21 4 11
0 13 -16 9 -15 -4 -19 -2 -15 9 3 9 1 12 -4 9 -6 -3 -10 -2 -10 4 0 6 -7 7
-17 4 -10 -4 -14 -2 -9 5 8 13 -29 26 -46 16 -8 -5 -7 0 2 11 9 11 10 16 3 11
-7 -4 -13 -3 -13 3 0 6 -7 7 -17 4 -12 -5 -14 -3 -8 8 7 11 5 11 -10 -1 -11
-9 -16 -10 -11 -2 4 7 1 12 -8 12 -9 0 -16 5 -16 10 0 6 -10 2 -22 -9 -11 -11
-25 -18 -29 -15 -12 7 -31 -34 -23 -49 5 -9 4 -9 -6 0 -11 10 -16 9 -27 -5 -8
-9 -12 -12 -9 -5 4 7 -1 11 -13 10 -14 -1 -17 -5 -10 -13 6 -8 5 -14 -6 -18
-9 -3 -13 -2 -10 3 3 5 1 13 -5 16 -6 4 -9 3 -8 -2 1 -4 -2 -18 -6 -31 -7 -22
-9 -22 -20 -6 -10 13 -15 14 -21 4 -6 -9 -4 -11 6 -6 8 4 6 1 -3 -7 -10 -8
-14 -18 -10 -22 4 -4 -3 -3 -15 4 -19 10 -23 8 -35 -16 -7 -15 -17 -26 -22
-24 -5 1 -12 -3 -16 -9 -5 -9 -9 -9 -14 -1 -4 6 -2 11 3 11 6 0 11 5 11 12 0
6 -10 2 -22 -9 -13 -11 -30 -18 -38 -16 -13 4 -13 3 0 -6 12 -8 12 -13 3 -22
-9 -9 -16 -9 -29 2 -10 8 -15 9 -12 4 10 -16 -6 -36 -30 -38 -11 0 -18 -5 -16
-9 3 -4 1 -8 -4 -8 -15 0 -23 -28 -10 -36 6 -4 8 -3 5 3 -4 6 2 18 13 28 11
10 20 13 20 8 0 -6 -7 -14 -16 -17 -13 -5 -14 -9 -3 -22 7 -8 8 -14 3 -13 -31
5 -36 -1 -20 -25 9 -14 12 -27 7 -30 -4 -3 -7 -23 -6 -45 1 -27 -2 -38 -9 -34
-6 3 -8 3 -4 -2 4 -4 2 -15 -5 -23 -7 -10 -8 -13 -1 -9 7 4 17 0 23 -7 10 -12
8 -14 -11 -10 -23 5 -23 5 2 -11 18 -12 19 -15 5 -10 -11 3 -16 3 -13 -1 4 -4
3 -16 -3 -27 -7 -12 -7 -17 -1 -13 5 3 13 -1 16 -10 3 -8 2 -12 -4 -9 -6 3
-10 3 -11 -2 0 -4 -2 -16 -4 -26 -2 -10 3 -21 12 -24 13 -5 13 -7 -1 -15 -18
-10 -22 -28 -5 -28 5 0 7 5 4 10 -3 6 -1 10 5 10 7 0 10 -7 6 -15 -3 -8 0 -15
7 -15 8 0 8 -3 -2 -9 -8 -5 -10 -14 -6 -21 5 -8 4 -11 -3 -6 -6 3 -13 2 -17
-4 -3 -6 4 -10 17 -11 23 -1 23 -1 -2 -9 -22 -7 -10 -15 15 -10 6 1 6 -2 2 -7
-5 -4 -13 -9 -18 -9 -5 -1 -11 -2 -13 -3 -3 0 1 -13 9 -28 8 -15 11 -31 8 -36
-3 -6 -1 -7 5 -3 6 4 9 14 6 24 -5 14 -4 14 4 3 6 -8 8 -19 6 -26 -3 -6 3 -18
12 -26 12 -9 15 -10 10 -1 -4 8 -1 12 9 12 11 0 15 -5 11 -16 -3 -8 -2 -12 3
-9 5 3 13 1 16 -5 5 -8 12 -7 23 2 12 10 14 10 8 0 -4 -7 -2 -12 4 -12 6 0 8
-5 4 -12 -6 -10 -5 -10 8 0 13 10 18 9 29 -5 12 -16 12 -17 -2 -6 -13 10 -16
10 -16 -1 0 -14 14 -16 33 -3 7 4 23 -8 39 -28 14 -20 31 -33 36 -30 5 4 9 1
9 -6 0 -7 3 -9 7 -6 3 4 13 1 21 -6 9 -6 13 -7 9 -1 -3 6 0 11 7 11 9 0 12 -7
8 -15 -4 -11 -1 -14 11 -9 11 4 17 1 17 -8 0 -7 5 -17 12 -21 8 -5 9 -2 4 11
-5 15 -4 16 9 5 8 -7 12 -17 9 -22 -4 -6 4 -4 17 3 21 11 22 10 12 -2 -10 -12
-7 -17 19 -27 l30 -11 -18 22 -19 22 23 -19 c12 -11 22 -29 22 -40 0 -12 3
-16 8 -10 4 6 15 10 25 8 9 -1 15 2 11 7 -3 5 -1 9 5 9 6 0 8 8 5 18 -5 15 -4
15 6 2 9 -11 13 -12 17 -2 2 6 9 12 14 12 6 0 7 -6 4 -12 -4 -7 0 -5 8 4 8 10
16 15 20 12 3 -3 8 4 12 16 6 18 9 19 23 8 13 -11 15 -11 10 4 -4 9 1 23 13
34 10 9 19 12 19 6 0 -6 -6 -13 -12 -15 -8 -4 -7 -6 3 -6 9 -1 20 6 23 15 5
13 9 14 21 4 13 -11 14 -10 8 6 -6 16 -4 17 9 7 12 -11 19 -9 36 10 12 13 19
27 15 31 -5 4 1 6 12 4 11 -1 23 -7 26 -11 3 -5 9 -2 12 7 3 8 1 18 -5 22 -7
4 -8 3 -4 -4 5 -8 1 -10 -9 -5 -13 4 -14 8 -4 14 7 4 21 3 32 -2 15 -9 20 -7
24 10 3 12 10 21 15 21 5 0 6 -5 2 -12 -4 -7 -3 -8 4 -4 7 4 12 14 12 23 0 9
3 13 7 10 3 -4 12 1 20 11 14 16 14 16 9 -2 -6 -16 -4 -17 9 -6 8 7 12 16 9
21 -3 5 2 6 10 3 9 -3 13 -11 10 -18 -3 -6 5 0 17 14 17 19 21 20 16 6 -5 -13
-3 -17 8 -13 9 4 22 -5 34 -22 15 -20 28 -28 45 -26 18 2 23 -1 19 -11 -3 -8
-1 -14 5 -14 6 0 13 6 15 13 5 11 11 -26 8 -45 0 -5 4 -8 10 -8 6 0 8 9 4 23
-4 15 -3 18 3 9 5 -7 15 -14 23 -16 8 -1 24 -7 35 -14 12 -6 25 -8 29 -4 4 4
3 -2 -3 -13 -9 -18 -7 -21 9 -22 12 -1 17 3 13 10 -3 7 1 3 10 -7 8 -10 13
-24 9 -30 -4 -7 -1 -7 7 1 15 14 43 6 33 -10 -4 -6 0 -8 9 -4 21 7 31 -3 17
-19 -7 -8 -6 -14 2 -20 8 -5 9 -3 4 7 -8 12 -6 12 8 0 9 -7 17 -19 17 -25 0
-7 -3 -7 -8 -1 -9 12 -38 13 -49 1 -5 -5 -2 -6 6 -1 9 5 12 3 9 -6 -3 -8 -10
-15 -16 -15 -7 -1 -17 -2 -23 -3 -5 0 -7 -7 -3 -13 6 -10 4 -10 -8 0 -13 10
-18 10 -24 1 -4 -8 -3 -9 4 -5 7 4 12 3 12 -3 0 -14 -18 -23 -25 -12 -3 6 -21
-1 -41 -14 -20 -14 -40 -22 -44 -20 -5 3 -12 0 -16 -6 -4 -7 -3 -9 3 -6 6 4
13 0 16 -8 4 -10 1 -12 -10 -8 -11 4 -14 2 -9 -5 5 -9 1 -9 -18 -3 -18 8 -28
6 -37 -5 -7 -8 -19 -12 -28 -9 -13 5 -14 4 -3 -6 17 -18 15 -34 -3 -19 -13 11
-14 10 -9 -6 6 -16 5 -17 -7 -6 -7 6 -18 12 -24 12 -5 0 -4 -4 3 -9 10 -6 9
-11 -4 -22 -10 -8 -15 -9 -11 -2 4 6 3 15 -3 18 -6 4 -9 3 -8 -2 1 -4 -2 -18
-6 -31 -7 -22 -8 -22 -22 -5 -13 17 -16 15 -18 -17 -1 -8 -6 -15 -13 -15 -6 0
-15 -3 -19 -7 -4 -5 -12 -8 -18 -8 -6 0 -4 5 4 10 9 6 10 10 3 10 -6 0 -15 -5
-18 -10 -4 -6 -11 -7 -17 -4 -5 4 -4 -4 2 -17 l13 -24 -23 20 -23 20 13 -24
c10 -19 10 -22 -2 -15 -21 14 -36 13 -42 -2 -3 -7 -11 -12 -18 -10 -7 1 -10 1
-5 -1 4 -3 7 -9 7 -14 0 -6 -4 -7 -10 -4 -5 3 -10 0 -11 -7 0 -9 -2 -10 -5 -1
-4 9 -11 9 -29 1 -21 -9 -23 -14 -13 -32 9 -18 9 -19 -3 -10 -17 14 -49 14
-49 1 0 -5 8 -6 18 -2 13 5 14 4 5 -6 -10 -10 -16 -9 -28 1 -8 7 -18 10 -22 6
-3 -3 -1 -6 6 -6 7 0 10 -4 7 -9 -4 -5 0 -11 6 -14 7 -2 1 -4 -14 -4 -15 0
-25 4 -22 9 3 5 -3 4 -15 -4 -12 -7 -21 -18 -21 -24 0 -7 -12 -19 -26 -29 -15
-9 -24 -12 -20 -7 3 6 2 13 -4 17 -5 3 -10 -1 -10 -9 0 -8 -10 -22 -22 -30
-26 -19 -38 -20 -38 -5 0 5 4 8 9 5 4 -3 16 0 26 8 15 11 16 13 1 13 -9 0 -16
-5 -16 -10 0 -6 -3 -7 -7 -4 -3 4 -13 1 -21 -6 -13 -10 -14 -9 -3 12 7 13 8
21 3 17 -6 -3 -12 -1 -14 6 -3 8 -19 12 -42 10 -26 -3 -36 0 -31 7 3 6 10 9
14 7 4 -3 8 1 8 9 0 11 -4 12 -14 4 -8 -7 -13 -8 -13 -1 0 15 -28 23 -36 10
-4 -6 -3 -8 4 -4 6 3 13 2 16 -3 4 -5 -2 -8 -11 -7 -10 2 -18 7 -19 12 -2 19
-16 44 -26 44 -5 0 -6 -6 -2 -12 6 -10 4 -10 -7 -1 -16 16 -33 17 -23 1 4 -7
3 -8 -5 -4 -9 6 -9 11 0 22 7 9 8 14 3 13 -27 -5 -46 2 -41 16 4 8 1 17 -5 21
-6 4 -8 3 -5 -3 4 -6 0 -13 -8 -17 -8 -3 -17 -1 -20 5 -4 5 -11 6 -17 3 -7 -4
-7 0 0 13 9 16 8 20 -6 20 -9 0 -23 -5 -31 -11 -11 -8 -13 -8 -7 1 4 8 2 13
-4 13 -6 0 -9 4 -6 9 3 5 -1 12 -10 15 -8 3 -13 2 -10 -2 3 -5 -1 -9 -8 -9 -8
0 -12 6 -9 13 2 7 -5 18 -17 24 -11 6 -17 16 -14 22 4 7 2 8 -5 4 -9 -6 -9
-11 -1 -21 8 -10 8 -15 -1 -21 -7 -4 -9 -3 -6 3 3 5 -3 17 -14 26 -22 20 -33
22 -23 5 4 -7 3 -8 -5 -4 -9 6 -9 11 0 22 10 12 9 13 -5 8 -10 -4 -18 0 -22
10 -3 9 -10 16 -15 16 -4 0 -6 -7 -3 -15 4 -8 1 -15 -6 -15 -6 0 -9 4 -5 9 7
12 -29 33 -41 23 -5 -4 -2 1 5 11 8 9 11 20 7 24 -3 3 -6 1 -6 -5 0 -20 -41
-7 -62 19 -11 13 -17 18 -13 12 9 -18 2 -16 -26 8 -22 19 -24 19 -30 2 -7 -16
-8 -16 -8 -1 -1 9 7 22 17 28 16 11 16 11 -2 6 -10 -4 -25 -1 -32 5 -8 6 -20
9 -27 6 -16 -6 -49 27 -39 39 4 5 -1 2 -10 -5 -13 -10 -18 -10 -18 -2 0 7 -4
9 -10 6 -5 -3 -7 0 -4 8 3 8 0 18 -7 23 -7 4 -10 3 -5 -4 3 -6 2 -14 -4 -17
-6 -4 -10 -3 -9 2 4 22 -2 35 -15 30 -10 -4 -12 3 -10 26 3 18 7 40 10 51 4
11 2 16 -3 13 -6 -4 -8 4 -5 18 2 15 9 22 16 18 6 -3 3 3 -7 14 -13 15 -15 22
-6 25 7 2 13 12 15 21 1 9 -2 15 -7 11 -5 -3 -6 -10 -3 -16 4 -6 2 -8 -4 -4
-6 4 -8 17 -3 34 5 15 4 38 0 51 -8 19 -6 22 8 17 14 -6 14 -4 -3 15 -10 12
-13 19 -6 15 15 -9 15 -5 2 29 -9 24 -8 26 7 21 14 -6 14 -4 -3 15 -10 12 -13
19 -7 15 16 -9 17 6 1 22 -9 9 -8 12 7 12 18 0 18 0 -1 16 -10 8 -14 13 -8 10
14 -7 27 21 15 29 -5 2 -11 19 -13 35 -4 25 -2 30 11 25 12 -4 12 -2 -2 9 -12
9 -14 15 -6 18 7 2 13 12 15 21 1 9 -2 15 -7 11 -5 -3 -6 -11 -3 -17 4 -7 4
-9 -1 -5 -14 13 -12 89 2 84 7 -3 10 1 6 9 -3 8 -9 12 -14 9 -5 -3 -5 5 0 18
5 13 5 33 0 47 -8 20 -7 22 8 17 14 -6 14 -4 -3 15 -10 12 -13 19 -6 15 15 -9
15 -5 2 29 -9 24 -8 26 7 21 14 -6 14 -4 -3 15 -10 12 -13 19 -6 15 7 -4 12
-1 12 9 0 9 -4 14 -9 10 -6 -3 -6 6 -1 25 5 19 5 32 -2 36 -7 4 -6 9 3 14 7 5
14 16 15 24 1 9 -2 14 -7 10 -5 -3 -6 -10 -3 -16 4 -7 2 -8 -4 -4 -9 5 -9 13
-2 26 13 25 13 33 -2 24 -7 -4 -8 -3 -4 5 6 8 12 9 20 2 7 -6 16 -8 19 -4 4 3
-1 12 -10 18 -15 11 -14 12 10 10 15 -2 27 1 27 6 0 5 6 8 13 6 6 -1 11 4 9
12 -3 12 0 12 12 2 11 -9 16 -9 22 0 4 8 3 9 -4 5 -7 -4 -12 -2 -12 5 0 6 8 9
19 6 13 -3 21 1 24 15 5 17 9 18 27 8 15 -8 20 -8 16 -1 -4 6 -1 12 6 13 7 0
18 2 24 2 6 1 19 8 29 16 16 13 16 15 -1 27 -21 16 -15 17 21 3 15 -6 24 -6
20 -1 -7 13 52 41 73 35 10 -4 13 -2 7 3 -22 18 -15 33 11 23 32 -12 44 -13
25 -1 -12 8 -12 12 2 26 13 12 17 13 18 3 0 -10 2 -10 6 0 2 6 9 12 14 12 6 0
7 -5 3 -12 -4 -7 -3 -8 5 -4 9 6 9 11 -1 24 -7 9 -8 13 -2 9 7 -4 17 0 24 8
10 12 16 13 28 3 13 -10 14 -10 8 0 -4 8 -1 12 10 12 13 0 14 3 5 13 -8 11 -7
13 7 12 9 0 24 -5 31 -10 10 -6 12 -4 6 5 -6 10 -4 12 7 7 12 -4 15 0 11 16
-5 22 -5 22 10 2 16 -20 16 -20 11 1 -3 12 0 25 7 29 7 5 10 4 6 -2 -7 -11 22
-28 31 -18 3 3 1 5 -5 5 -5 0 -10 7 -10 15 0 12 3 12 16 2 12 -10 13 -9 6 2
-6 11 -3 13 13 9 16 -4 19 -2 15 10 -4 10 -2 13 5 8 7 -4 12 -3 12 2 0 6 7 13
16 16 15 6 15 4 3 -11 -13 -16 -12 -17 4 -4 10 8 16 20 13 26 -3 8 6 12 27 11
19 0 32 5 34 14 4 13 3 13 -7 0 -10 -13 -11 -13 -7 0 2 8 13 16 25 16 12 1 25
3 30 4 4 1 10 2 15 1 4 0 7 4 7 10 0 6 7 9 15 6 8 -4 17 -1 21 5 4 6 3 8 -3 5
-6 -4 -14 0 -17 9 -3 8 -2 12 4 9 6 -3 10 0 10 7 0 10 2 10 9 0 4 -8 12 -13
17 -11z m-72 -25 c-10 -8 -21 -12 -23 -10 -3 2 4 11 15 18 10 8 21 12 23 10 3
-2 -4 -11 -15 -18z m591 14 c3 -5 1 -10 -4 -10 -6 0 -11 5 -11 10 0 6 2 10 4
10 3 0 8 -4 11 -10z m126 -82 c11 -21 11 -22 -4 -9 -10 7 -17 17 -17 22 0 15
9 10 21 -13z m58 -31 c8 -10 7 -14 -2 -14 -8 0 -14 6 -14 14 0 7 1 13 2 13 2
0 8 -6 14 -13z m41 -28 c0 -6 -4 -7 -10 -4 -5 3 -10 11 -10 16 0 6 5 7 10 4 6
-3 10 -11 10 -16z m-1553 -24 c0 -8 -4 -12 -9 -9 -4 3 -8 0 -8 -7 0 -7 -3 -9
-6 -6 -4 4 -1 13 6 22 15 19 17 19 17 0z m1662 -48 c0 -9 -2 -8 -6 1 -2 6 -10
9 -15 6 -7 -4 -8 -2 -4 5 9 13 26 5 25 -12z m-449 -7 c0 -5 -2 -10 -4 -10 -3
0 -8 5 -11 10 -3 6 -1 10 4 10 6 0 11 -4 11 -10z m-1346 -26 c3 -8 2 -12 -4
-9 -6 3 -10 10 -10 16 0 14 7 11 14 -7z m-24 -10 c0 -8 -5 -12 -10 -9 -6 4 -8
11 -5 16 9 14 15 11 15 -7z m1630 -98 c0 -2 -7 -7 -16 -10 -8 -3 -12 -2 -9 4
6 10 25 14 25 6z m-1338 -18 c-14 -14 -54 -19 -46 -6 4 5 12 7 20 4 7 -3 16
-1 19 4 4 6 9 10 13 10 3 0 1 -5 -6 -12z m1803 -48 c3 -6 -1 -7 -9 -4 -18 7
-21 14 -7 14 6 0 13 -4 16 -10z m-1148 -67 c-3 -2 -11 -5 -19 -7 -7 -1 -18 -5
-25 -9 -6 -4 -15 -2 -19 4 -4 7 -3 9 4 5 6 -3 13 -2 17 4 4 6 11 8 16 5 5 -4
9 -1 9 5 0 6 5 8 11 5 6 -4 8 -9 6 -12z m1147 -101 c3 -5 -1 -9 -9 -9 -8 0
-12 4 -9 9 3 4 7 8 9 8 2 0 6 -4 9 -8z m-838 -59 c-10 -11 -19 -7 -22 10 -2
15 0 16 12 6 8 -6 12 -14 10 -16z m21 -15 c-3 -8 -6 -5 -6 6 -1 11 2 17 5 13
3 -3 4 -12 1 -19z m-667 -12 c0 -3 -4 -8 -10 -11 -5 -3 -10 -1 -10 4 0 6 5 11
10 11 6 0 10 -2 10 -4z m905 -26 c-3 -5 -12 -10 -18 -10 -7 0 -6 4 3 10 19 12
23 12 15 0z m-1690 -50 c-3 -5 -12 -10 -18 -10 -7 0 -6 4 3 10 19 12 23 12 15
0z m2269 2 c3 -5 -1 -9 -9 -9 -8 0 -12 4 -9 9 3 4 7 8 9 8 2 0 6 -4 9 -8z
m-1599 -192 c-3 -5 -12 -10 -18 -10 -7 0 -6 4 3 10 19 12 23 12 15 0z m-670
-10 c-3 -5 -12 -10 -18 -10 -7 0 -6 4 3 10 19 12 23 12 15 0z m2269 -118 c3
-5 -1 -9 -9 -9 -8 0 -12 4 -9 9 3 4 7 8 9 8 2 0 6 -4 9 -8z m-1607 -8 c-3 -3
-12 -4 -19 -1 -8 3 -5 6 6 6 11 1 17 -2 13 -5z m-662 -154 c-3 -5 -12 -10 -18
-10 -7 0 -6 4 3 10 19 12 23 12 15 0z m2269 2 c3 -5 -1 -9 -9 -9 -8 0 -12 4
-9 9 3 4 7 8 9 8 2 0 6 -4 9 -8z m-1609 -40 c-3 -3 -11 0 -18 7 -9 10 -8 11 6
5 10 -3 15 -9 12 -12z m45 -46 c0 -2 -7 -7 -16 -10 -8 -3 -12 -2 -9 4 6 10 25
14 25 6z m34 -32 c3 -8 2 -12 -4 -9 -6 3 -10 10 -10 16 0 14 7 11 14 -7z
m-739 -4 c-3 -5 -12 -10 -18 -10 -7 0 -6 4 3 10 19 12 23 12 15 0z m1712 4
c-3 -3 -12 -4 -19 -1 -8 3 -5 6 6 6 11 1 17 -2 13 -5z m557 -42 c3 -5 -1 -9
-9 -9 -8 0 -12 4 -9 9 3 4 7 8 9 8 2 0 6 -4 9 -8z m-884 -48 c-15 -17 -17 -17
-23 -1 -3 8 3 14 15 14 16 2 17 -1 8 -13z m-480 2 c0 -3 -4 -8 -10 -11 -5 -3
-10 -1 -10 4 0 6 5 11 10 11 6 0 10 -2 10 -4z m233 -130 c-3 -4 -9 -2 -14 5
-13 22 -11 31 5 17 8 -7 12 -17 9 -22z m-758 -65 c3 -5 2 -12 -3 -15 -5 -3 -9
1 -9 9 0 17 3 19 12 6z m1492 -6 c0 -8 -4 -12 -9 -9 -5 3 -6 10 -3 15 9 13 12
11 12 -6z m-42 -25 c-3 -5 -12 -10 -18 -10 -7 0 -6 4 3 10 19 12 23 12 15 0z
m-1771 -38 c3 -5 -1 -9 -9 -9 -8 0 -12 4 -9 9 3 4 7 8 9 8 2 0 6 -4 9 -8z
m1685 -18 c-6 -7 -15 -11 -21 -8 -5 3 -4 12 3 20 6 7 15 11 21 8 5 -3 4 -12
-3 -20z m481 14 c0 -4 -4 -8 -9 -8 -6 0 -12 4 -15 8 -3 5 1 9 9 9 8 0 15 -4
15 -9z m-60 -42 c0 -3 -4 -8 -10 -11 -5 -3 -10 -1 -10 4 0 6 5 11 10 11 6 0
10 -2 10 -4z m-780 -176 c0 -5 -4 -10 -10 -10 -5 0 -10 5 -10 10 0 6 5 10 10
10 6 0 10 -4 10 -10z m-124 -72 c4 -7 3 -8 -4 -4 -7 4 -12 2 -12 -5 0 -7 -3
-10 -6 -6 -6 5 3 27 11 27 2 0 7 -5 11 -12z m-183 -32 c4 -10 0 -12 -15 -8
-15 4 -17 7 -6 13 17 11 15 11 21 -5z m312 -166 c3 -6 -1 -7 -9 -4 -18 7 -21
14 -7 14 6 0 13 -4 16 -10z m-85 -44 c0 -2 -7 -7 -16 -10 -8 -3 -12 -2 -9 4 6
10 25 14 25 6z"/>
<path d="M1367 2369 c4 -13 8 -18 11 -10 2 7 -1 18 -6 23 -8 8 -9 4 -5 -13z"/>
<path d="M1410 2361 c0 -5 7 -12 16 -15 14 -5 15 -4 4 9 -14 17 -20 19 -20 6z"/>
<path d="M1550 2268 c-13 -8 -12 -9 2 -5 9 3 19 1 21 -6 2 -7 7 -9 11 -6 13
12 -19 28 -34 17z"/>
<path d="M925 2149 c-4 -6 -5 -12 -2 -15 2 -3 7 2 10 11 7 17 1 20 -8 4z"/>
<path d="M2094 1947 c-4 -6 -4 -9 1 -5 4 4 14 3 22 -4 7 -6 15 -9 18 -7 2 3
-4 10 -15 17 -15 9 -21 9 -26 -1z"/>
<path d="M2197 1877 c-3 -8 1 -14 8 -14 7 0 11 6 8 14 -3 7 -6 13 -8 13 -2 0
-5 -6 -8 -13z"/>
<path d="M1046 1755 c-9 -26 -7 -32 5 -12 6 10 9 21 6 23 -2 3 -7 -2 -11 -11z"/>
<path d="M2025 1760 c-3 -5 -12 -7 -20 -3 -8 3 -15 3 -15 0 0 -13 30 -14 40
-1 7 8 10 14 7 14 -3 0 -8 -4 -12 -10z"/>
<path d="M853 1549 c-2 -19 11 -26 21 -10 3 5 0 14 -7 19 -10 8 -13 6 -14 -9z"/>
<path d="M857 1513 c-10 -9 -9 -23 1 -23 5 0 9 7 9 15 0 17 -1 18 -10 8z"/>
<path d="M1859 1042 c-13 -15 -12 -16 3 -4 13 10 17 10 21 0 4 -9 6 -9 6 -1 2
20 -16 24 -30 5z"/>
<path d="M1054 966 c1 -8 5 -18 8 -22 4 -3 5 1 4 10 -1 8 -5 18 -8 22 -4 3 -5
-1 -4 -10z"/>
<path d="M2034 948 c-4 -6 -3 -8 4 -4 5 3 12 1 14 -5 2 -7 9 -10 16 -8 8 3 5
9 -7 16 -15 9 -22 10 -27 1z"/>
<path d="M1507 889 c7 -7 15 -10 18 -7 3 3 -2 9 -12 12 -14 6 -15 5 -6 -5z"/>
<path d="M455 881 c-3 -5 -2 -12 3 -15 5 -3 9 1 9 9 0 17 -3 19 -12 6z"/>
<path d="M550 805 c0 -5 5 -17 10 -25 5 -8 10 -10 10 -5 0 6 -5 17 -10 25 -5
8 -10 11 -10 5z"/>
<path d="M717 699 c7 -7 15 -10 18 -7 3 3 -2 9 -12 12 -14 6 -15 5 -6 -5z"/>
<path d="M1416 373 c-6 -14 -5 -15 5 -6 7 7 10 15 7 18 -3 3 -9 -2 -12 -12z"/>
<path d="M1520 2590 c-9 -6 -10 -10 -3 -10 6 0 15 5 18 10 8 12 4 12 -15 0z"/>
<path d="M2301 2134 c0 -11 3 -14 6 -6 3 7 2 16 -1 19 -3 4 -6 -2 -5 -13z"/>
<path d="M2450 2049 c0 -5 5 -7 10 -4 6 3 10 8 10 11 0 2 -4 4 -10 4 -5 0 -10
-5 -10 -11z"/>
<path d="M414 566 c1 -8 5 -18 8 -22 4 -3 5 1 4 10 -1 8 -5 18 -8 22 -4 3 -5
-1 -4 -10z"/>
<path d="M1855 320 c-3 -5 -1 -10 4 -10 6 0 11 5 11 10 0 6 -2 10 -4 10 -3 0
-8 -4 -11 -10z"/>
<path d="M863 305 c0 -8 4 -12 9 -9 5 3 6 10 3 15 -9 13 -12 11 -12 -6z"/>
<path d="M1815 311 c-3 -5 -1 -12 5 -16 5 -3 10 1 10 9 0 18 -6 21 -15 7z"/>
<path d="M975 240 c-3 -5 -1 -10 4 -10 6 0 11 5 11 10 0 6 -2 10 -4 10 -3 0
-8 -4 -11 -10z"/>
<path d="M1090 180 c0 -5 5 -10 11 -10 5 0 7 5 4 10 -3 6 -8 10 -11 10 -2 0
-4 -4 -4 -10z"/>
</g>
</svg>
