<?xml version="1.0" encoding="utf-8"?>
<!-- Generator: Adobe Illustrator 26.3.0, SVG Export Plug-In . SVG Version: 6.00 Build 0)  -->
<svg version="1.1" id="Layer_1" xmlns="http://www.w3.org/2000/svg" xmlns:xlink="http://www.w3.org/1999/xlink" x="0px" y="0px"
	 viewBox="0 0 1920 1080" style="enable-background:new 0 0 1920 1080;" xml:space="preserve">
<style type="text/css">
	.st0{fill:#AF0000;}
	.st1{fill:#FF4545;}
	.st2{fill:#FF0000;}
	.st3{fill:#FF2C2C;}
	.st4{fill:#FFFFFF;}
	.st5{font-family:'Shapiro-55MiddleExtd';}
	.st6{font-size:92.2436px;}
	.st7{letter-spacing:27;}
	.st8{opacity:0.5;fill:#FFFFFF;}
	.st9{opacity:0.6;fill:#FFFFFF;}
	.st10{opacity:0.4;fill:#FFFFFF;}
	.st11{opacity:0.7;fill:#FFFFFF;}
</style>
<g>
	<g>
		<path class="st4" d="M498.55,830.71c-15.4,40.43-54.18,60.51-122.67,60.51c-83.62,0-127.08-24.2-127.08-99.02
			c0-74.81,43.46-99.01,127.08-99.01c68.21,0,103.97,14.85,121.85,59.69l-44.01,14.03c-6.05-24.76-25.03-36.31-77.84-36.31
			c-61.61,0-78.39,15.95-78.39,61.61c0,45.66,16.78,61.62,78.39,61.62c54.46,0,72.61-14.58,78.94-37.14L498.55,830.71z"/>
		<path class="st4" d="M652.05,891.22c-83.62,0-129.83-24.2-129.83-99.02c0-74.81,46.21-99.01,129.83-99.01
			c83.61,0,129.55,24.2,129.55,99.01C781.6,867.02,735.67,891.22,652.05,891.22z M652.05,730.59c-61.34,0-81.14,15.95-81.14,61.61
			c0,45.66,19.8,61.62,81.14,61.62c61.61,0,81.42-15.95,81.42-61.62C733.47,746.55,713.66,730.59,652.05,730.59z"/>
		<path class="st4" d="M1098.22,885.17V746.55L997.27,885.17h-37.68L857.82,746.55v138.63h-42.91V698.96h66.01l98.47,133.13
			l97.09-133.13h65.19v186.21H1098.22z"/>
		<path class="st4" d="M1365.05,753.15c-4.4-15.4-35.48-26.13-72.89-26.13c-46.49,0-69.59,8.52-69.59,24.2
			c0,19.8,25.85,21.73,44.56,21.73c16.5,0,27.78-0.83,56.11-0.83c49.23,0,83.07,11.82,83.07,52.81c0,39.06-34.39,66.29-119.1,66.29
			c-60.79,0-103.7-17.33-117.45-50.88l44.28-11.55c7.43,14.85,31.08,27.5,76.74,27.5c44.56,0,66.84-9.63,66.84-26.13
			c0-17.6-22.83-21.45-44.28-21.45c-16.5,0-30.26,1.1-52.54,1.1c-33.56,0-88.02-9.62-88.02-56.93c0-41.81,49.51-59.69,119.37-59.69
			c67.39,0,104.79,18.7,113.87,45.39L1365.05,753.15z"/>
		<path class="st4" d="M1620.04,885.17l-19.25-46.48h-119.92l-19.25,46.48h-51.71l82.51-186.21h96.27l82.51,186.21H1620.04z
			 M1558.16,734.17h-34.93l-28.88,69.59h92.69L1558.16,734.17z"/>
	</g>
	<g>
		<polygon class="st0" points="960,23.69 960,88.22 1165.92,207.1 1221.81,174.83 		"/>
		<polygon class="st0" points="960,325.97 850.11,262.53 960,199.11 1069.88,262.53 		"/>
		<polygon class="st1" points="754.06,207.1 754.06,207.1 698.19,174.83 960,23.69 960,88.22 		"/>
		<polygon class="st2" points="850.11,262.53 850.11,389.41 960,452.87 960,325.97 		"/>
		<polygon class="st0" points="960,628.28 960,563.77 1165.92,444.87 1109.6,412.37 1109.6,412.37 1221.81,477.14 		"/>
		<polygon class="st1" points="754.06,444.87 960,563.77 960,628.28 698.19,477.14 754.06,444.87 		"/>
		<polygon class="st0" points="754.06,444.87 698.19,477.14 698.19,477.14 698.19,174.83 698.19,174.83 754.06,207.1 		"/>
		<polygon class="st2" points="1221.81,477.14 1069.88,389.41 1221.81,301.71 		"/>
		<g>
			<g>
				<polygon class="st3" points="1069.88,389.41 960,452.87 960,325.97 1221.81,174.83 1221.81,301.71 				"/>
			</g>
		</g>
	</g>
	<g>
		<path class="st4" d="M1259.89,201.89v-0.15c0-14.61,11.84-26.91,26.76-26.91c15.07,0,26.76,12.15,26.76,26.75v0.16
			c0,14.61-11.84,26.91-26.76,26.91C1271.58,228.65,1259.89,216.5,1259.89,201.89z M1310.33,201.74v-0.16
			c0-12.91-10.15-23.83-23.68-23.83c-13.38,0-23.68,10.92-23.68,23.99v0.15c0,12.92,10.15,23.83,23.68,23.83
			C1300.03,225.72,1310.33,214.81,1310.33,201.74z M1275.43,187.28h13.07c6.61,0,11.38,2.93,11.38,9.23v0.16
			c0,4.15-2.46,7.38-6.15,8.46l7.07,10.14h-8.15l-6-8.92h-4.31v8.92h-6.92V187.28z M1288.04,200.82c3.23,0,4.92-1.23,4.92-3.84
			v-0.16c0-2.3-1.85-3.69-4.92-3.54h-5.69v7.54H1288.04z"/>
	</g>
	<text transform="matrix(1 0 0 1 708.5264 1056.3148)" class="st4 st5 st6 st7">STEEL</text>
</g>
</svg>
