<?xml version="1.0" encoding="utf-8"?>
<!-- Generator: Adobe Illustrator 26.3.0, SVG Export Plug-In . SVG Version: 6.00 Build 0)  -->
<svg version="1.1" id="Layer_1" xmlns="http://www.w3.org/2000/svg" xmlns:xlink="http://www.w3.org/1999/xlink" x="0px" y="0px"
	 viewBox="0 0 1920 1080" style="enable-background:new 0 0 1920 1080;" xml:space="preserve">
<style type="text/css">
	.st0{fill:#FFFFFF;}
	.st1{fill:#AF0000;}
	.st2{fill:#FF4545;}
	.st3{fill:#FF0000;}
	.st4{fill:#FF2C2C;}
	.st5{enable-background:new    ;}
</style>
<g>
	<g>
		<path class="st0" d="M498.55,830.71c-15.4,40.43-54.18,60.51-122.67,60.51c-83.62,0-127.08-24.2-127.08-99.02
			c0-74.81,43.46-99.01,127.08-99.01c68.21,0,103.97,14.85,121.85,59.69l-44.01,14.03c-6.05-24.76-25.03-36.31-77.84-36.31
			c-61.61,0-78.39,15.95-78.39,61.61s16.78,61.62,78.39,61.62c54.46,0,72.61-14.58,78.94-37.14L498.55,830.71z"/>
		<path class="st0" d="M652.05,891.22c-83.62,0-129.83-24.2-129.83-99.02c0-74.81,46.21-99.01,129.83-99.01
			c83.61,0,129.55,24.2,129.55,99.01C781.6,867.02,735.67,891.22,652.05,891.22z M652.05,730.59c-61.34,0-81.14,15.95-81.14,61.61
			s19.8,61.62,81.14,61.62c61.61,0,81.42-15.95,81.42-61.62C733.47,746.55,713.66,730.59,652.05,730.59z"/>
		<path class="st0" d="M1098.22,885.17V746.55L997.27,885.17h-37.68L857.82,746.55v138.63h-42.91V698.96h66.01l98.47,133.13
			l97.09-133.13h65.19v186.21L1098.22,885.17L1098.22,885.17z"/>
		<path class="st0" d="M1365.05,753.15c-4.4-15.4-35.48-26.13-72.89-26.13c-46.49,0-69.59,8.52-69.59,24.2
			c0,19.8,25.85,21.73,44.56,21.73c16.5,0,27.78-0.83,56.11-0.83c49.23,0,83.07,11.82,83.07,52.81c0,39.06-34.39,66.29-119.1,66.29
			c-60.79,0-103.7-17.33-117.45-50.88l44.28-11.55c7.43,14.85,31.08,27.5,76.74,27.5c44.56,0,66.84-9.63,66.84-26.13
			c0-17.6-22.83-21.45-44.28-21.45c-16.5,0-30.26,1.1-52.54,1.1c-33.56,0-88.02-9.62-88.02-56.93c0-41.81,49.51-59.69,119.37-59.69
			c67.39,0,104.79,18.7,113.87,45.39L1365.05,753.15z"/>
		<path class="st0" d="M1620.04,885.17l-19.25-46.48h-119.92l-19.25,46.48h-51.71l82.51-186.21h96.27l82.51,186.21H1620.04z
			 M1558.16,734.17h-34.93l-28.88,69.59h92.69L1558.16,734.17z"/>
	</g>
	<g>
		<polygon class="st1" points="960,23.69 960,88.22 1165.92,207.1 1221.81,174.83 		"/>
		<polygon class="st1" points="960,325.97 850.11,262.53 960,199.11 1069.88,262.53 		"/>
		<polygon class="st2" points="754.06,207.1 754.06,207.1 698.19,174.83 960,23.69 960,88.22 		"/>
		<polygon class="st3" points="850.11,262.53 850.11,389.41 960,452.87 960,325.97 		"/>
		<polygon class="st1" points="960,628.28 960,563.77 1165.92,444.87 1109.6,412.37 1109.6,412.37 1221.81,477.14 		"/>
		<polygon class="st2" points="754.06,444.87 960,563.77 960,628.28 698.19,477.14 		"/>
		<polygon class="st1" points="754.06,444.87 698.19,477.14 698.19,477.14 698.19,174.83 698.19,174.83 754.06,207.1 		"/>
		<polygon class="st3" points="1221.81,477.14 1069.88,389.41 1221.81,301.71 		"/>
		<g>
			<g>
				<polygon class="st4" points="1069.88,389.41 960,452.87 960,325.97 1221.81,174.83 1221.81,301.71 				"/>
			</g>
		</g>
	</g>
	<g>
		<path class="st0" d="M1259.89,201.89v-0.15c0-14.61,11.84-26.91,26.76-26.91c15.07,0,26.76,12.15,26.76,26.75v0.16
			c0,14.61-11.84,26.91-26.76,26.91C1271.58,228.65,1259.89,216.5,1259.89,201.89z M1310.33,201.74v-0.16
			c0-12.91-10.15-23.83-23.68-23.83c-13.38,0-23.68,10.92-23.68,23.99v0.15c0,12.92,10.15,23.83,23.68,23.83
			C1300.03,225.72,1310.33,214.81,1310.33,201.74z M1275.43,187.28h13.07c6.61,0,11.38,2.93,11.38,9.23v0.16
			c0,4.15-2.46,7.38-6.15,8.46l7.07,10.14h-8.15l-6-8.92h-4.31v8.92h-6.92v-27.99H1275.43z M1288.04,200.82
			c3.23,0,4.92-1.23,4.92-3.84v-0.16c0-2.3-1.85-3.69-4.92-3.54h-5.69v7.54H1288.04z"/>
	</g>
	<g class="st5">
		<path class="st0" d="M767.48,1010.42c-0.15-2.07-0.73-3.83-1.73-5.27c-1.01-1.44-2.42-2.56-4.26-3.36s-3.88-1.36-6.15-1.69
			c-2.27-0.33-4.92-0.5-7.95-0.5c-11.8,0-17.7,2.84-17.7,8.51c0,2.25,0.81,3.87,2.43,4.86c1.62,0.99,4.2,1.65,7.75,1.98l24.95,2.25
			c3.36,0.3,6.29,0.85,8.78,1.64c2.49,0.8,4.7,1.93,6.62,3.4c1.92,1.47,3.37,3.4,4.35,5.79c0.98,2.39,1.46,5.22,1.46,8.49
			c0,3.24-0.56,6.1-1.69,8.56s-2.72,4.51-4.77,6.15c-2.06,1.64-4.65,2.97-7.79,4.01c-3.14,1.04-6.59,1.77-10.36,2.21
			c-3.77,0.43-8.07,0.65-12.9,0.65c-4.65,0-8.79-0.23-12.41-0.68c-3.62-0.45-7-1.22-10.16-2.32c-3.15-1.1-5.77-2.54-7.86-4.35
			c-2.09-1.8-3.75-4.09-4.98-6.87c-1.23-2.78-1.89-6.01-1.98-9.71h16.3c0.21,2.52,0.86,4.65,1.94,6.37c1.08,1.73,2.6,3.05,4.57,3.96
			c1.97,0.92,4.14,1.56,6.53,1.94c2.39,0.38,5.23,0.56,8.54,0.56c13.45,0,20.18-3.17,20.18-9.5c0-2.73-0.84-4.67-2.52-5.81
			c-1.68-1.14-4.16-1.88-7.43-2.21l-24.82-2.43c-3.36-0.33-6.29-0.88-8.78-1.64c-2.49-0.77-4.69-1.84-6.6-3.22
			c-1.91-1.38-3.35-3.18-4.32-5.41c-0.98-2.22-1.46-4.85-1.46-7.88c0-13.54,11.5-20.31,34.5-20.31c5.37,0,10.14,0.36,14.3,1.08
			c4.16,0.72,7.89,1.9,11.19,3.54c3.3,1.64,5.86,3.9,7.66,6.78c1.8,2.88,2.76,6.35,2.88,10.4H767.48z"/>
		<path class="st0" d="M891.21,990.46v12.3h-29.77v53.55h-14.55v-53.55h-29.77v-12.3H891.21z"/>
		<path class="st0" d="M943.01,1002.13v14.5h48.24v11.08h-48.24v16.93h51.12v11.67h-65.71v-65.85h64.54v11.67H943.01z"/>
		<path class="st0" d="M1048.05,1002.13v14.5h48.24v11.08h-48.24v16.93h51.12v11.67h-65.71v-65.85H1098v11.67H1048.05z"/>
		<path class="st0" d="M1203.98,1056.31h-65.49v-65.85h14.59v53.69h50.9V1056.31z"/>
	</g>
</g>
</svg>
